<svg width="116" height="20" viewBox="0 0 116 20" fill="none" xmlns="http://www.w3.org/2000/svg">
<g clip-path="url(#clip0_203_54)">
<path d="M9.09984 2.38971C9.50168 1.69985 10.4983 1.69985 10.9001 2.38971L13.2293 6.38865L17.7523 7.36808C18.5325 7.53704 18.8405 8.48488 18.3086 9.08021L15.2251 12.5311L15.6913 17.1354C15.7717 17.9296 14.9654 18.5155 14.2348 18.1935L10 16.3274L5.76514 18.1935C5.03458 18.5155 4.2283 17.9296 4.30873 17.1354L4.7749 12.5311L1.69144 9.08021C1.15951 8.48488 1.46748 7.53704 2.24774 7.36808L6.77071 6.38865L9.09984 2.38971Z" fill="#FFCC02"/>
</g>
<g clip-path="url(#clip1_203_54)">
<path d="M33.0998 2.38971C33.5017 1.69985 34.4983 1.69985 34.9001 2.38971L37.2293 6.38865L41.7523 7.36808C42.5325 7.53704 42.8405 8.48488 42.3086 9.08021L39.2251 12.5311L39.6913 17.1354C39.7717 17.9296 38.9654 18.5155 38.2348 18.1935L34 16.3274L29.7651 18.1935C29.0346 18.5155 28.2283 17.9296 28.3087 17.1354L28.7749 12.5311L25.6914 9.08021C25.1595 8.48488 25.4675 7.53704 26.2477 7.36808L30.7707 6.38865L33.0998 2.38971Z" fill="#FFCC02"/>
</g>
<g clip-path="url(#clip2_203_54)">
<path d="M57.0998 2.38971C57.5017 1.69985 58.4983 1.69985 58.9001 2.38971L61.2293 6.38865L65.7523 7.36808C66.5325 7.53704 66.8405 8.48488 66.3086 9.08021L63.2251 12.5311L63.6913 17.1354C63.7717 17.9296 62.9654 18.5155 62.2348 18.1935L58 16.3274L53.7651 18.1935C53.0346 18.5155 52.2283 17.9296 52.3087 17.1354L52.7749 12.5311L49.6914 9.08021C49.1595 8.48488 49.4675 7.53704 50.2477 7.36808L54.7707 6.38865L57.0998 2.38971Z" fill="#FFCC02"/>
</g>
<g clip-path="url(#clip3_203_54)">
<path d="M81.0998 2.38971C81.5017 1.69985 82.4983 1.69985 82.9001 2.38971L85.2293 6.38865L89.7523 7.36808C90.5325 7.53704 90.8405 8.48488 90.3086 9.08021L87.2251 12.5311L87.6913 17.1354C87.7717 17.9296 86.9654 18.5155 86.2348 18.1935L82 16.3274L77.7651 18.1935C77.0346 18.5155 76.2283 17.9296 76.3087 17.1354L76.7749 12.5311L73.6914 9.08021C73.1595 8.48488 73.4675 7.53704 74.2477 7.36808L78.7707 6.38865L81.0998 2.38971Z" fill="#FFCC02"/>
</g>
<g clip-path="url(#clip4_203_54)">
<path d="M105.1 2.38971C105.502 1.69985 106.498 1.69985 106.9 2.38971L109.229 6.38865L113.752 7.36808C114.533 7.53704 114.841 8.48488 114.309 9.08021L111.225 12.5311L111.691 17.1354C111.772 17.9296 110.965 18.5155 110.235 18.1935L106 16.3274L101.765 18.1935C101.035 18.5155 100.228 17.9296 100.309 17.1354L100.775 12.5311L97.6914 9.08021C97.1595 8.48488 97.4675 7.53704 98.2477 7.36808L102.771 6.38865L105.1 2.38971Z" fill="#E6E6E6"/>
</g>
<defs>
<clipPath id="clip0_203_54">
<rect width="20" height="20" fill="white"/>
</clipPath>
<clipPath id="clip1_203_54">
<rect width="20" height="20" fill="white" transform="translate(24)"/>
</clipPath>
<clipPath id="clip2_203_54">
<rect width="20" height="20" fill="white" transform="translate(48)"/>
</clipPath>
<clipPath id="clip3_203_54">
<rect width="20" height="20" fill="white" transform="translate(72)"/>
</clipPath>
<clipPath id="clip4_203_54">
<rect width="20" height="20" fill="white" transform="translate(96)"/>
</clipPath>
</defs>
</svg>
