<svg width="20" height="21" viewBox="0 0 20 21" fill="none" xmlns="http://www.w3.org/2000/svg">
<path d="M9.09981 2.88977C9.50165 2.19991 10.4983 2.19991 10.9001 2.88977L13.2292 6.88871L17.7522 7.86814C18.5325 8.0371 18.8405 8.98494 18.3086 9.58027L15.2251 13.0312L15.6912 17.6354C15.7716 18.4297 14.9654 19.0155 14.2348 18.6936L9.99998 16.8274L5.76511 18.6936C5.03455 19.0155 4.22827 18.4297 4.3087 17.6354L4.77487 13.0312L1.69141 9.58027C1.15948 8.98494 1.46745 8.0371 2.24771 7.86814L6.77068 6.88871L9.09981 2.88977Z" fill="#E6E6E6"/>
<path d="M5.76523 18.6935L10.0001 16.8274V2.37231C9.65048 2.37231 9.30085 2.54478 9.09993 2.88971L6.7708 6.88865L2.24783 7.86808C1.46758 8.03704 1.1596 8.98488 1.69153 9.58021L4.77499 13.0311L4.30882 17.6354C4.22839 18.4296 5.03468 19.0155 5.76523 18.6935Z" fill="#FFCC02"/>
</svg>
