<svg width="41" height="40" viewBox="0 0 41 40" fill="none" xmlns="http://www.w3.org/2000/svg">
<path d="M20.1426 3.75C16.9286 3.75 13.7869 4.70305 11.1146 6.48862C8.44227 8.27419 6.35947 10.8121 5.12954 13.7814C3.89962 16.7507 3.57781 20.018 4.20482 23.1702C4.83183 26.3224 6.3795 29.2179 8.6521 31.4905C10.9247 33.7631 13.8202 35.3107 16.9724 35.9378C20.1246 36.5648 23.3919 36.243 26.3612 35.013C29.3305 33.7831 31.8684 31.7003 33.654 29.028C35.4395 26.3557 36.3926 23.2139 36.3926 20C36.388 15.6916 34.6745 11.561 31.628 8.51454C28.5816 5.46806 24.451 3.75455 20.1426 3.75ZM20.1426 33.75C17.4231 33.75 14.7647 32.9436 12.5035 31.4327C10.2423 29.9218 8.47995 27.7744 7.43924 25.2619C6.39854 22.7494 6.12624 19.9847 6.65679 17.3175C7.18733 14.6503 8.4969 12.2003 10.4199 10.2773C12.3428 8.35431 14.7929 7.04475 17.4601 6.5142C20.1273 5.98366 22.892 6.25595 25.4045 7.29666C27.917 8.33736 30.0644 10.0997 31.5753 12.3609C33.0862 14.6221 33.8926 17.2805 33.8926 20C33.8885 23.6455 32.4385 27.1404 29.8607 29.7182C27.283 32.2959 23.788 33.7459 20.1426 33.75ZM30.1426 20C30.1426 20.3315 30.0109 20.6495 29.7765 20.8839C29.542 21.1183 29.2241 21.25 28.8926 21.25H20.1426C19.8111 21.25 19.4931 21.1183 19.2587 20.8839C19.0243 20.6495 18.8926 20.3315 18.8926 20V11.25C18.8926 10.9185 19.0243 10.6005 19.2587 10.3661C19.4931 10.1317 19.8111 10 20.1426 10C20.4741 10 20.792 10.1317 21.0265 10.3661C21.2609 10.6005 21.3926 10.9185 21.3926 11.25V18.75H28.8926C29.2241 18.75 29.542 18.8817 29.7765 19.1161C30.0109 19.3505 30.1426 19.6685 30.1426 20Z" fill="#888888"/>
</svg>
