<svg width="41" height="40" viewBox="0 0 41 40" fill="none" xmlns="http://www.w3.org/2000/svg">
<path d="M39.1079 23.5C38.9766 23.5985 38.8271 23.6701 38.6681 23.7109C38.5091 23.7516 38.3436 23.7606 38.1811 23.7374C38.0186 23.7142 37.8623 23.6592 37.721 23.5756C37.5798 23.492 37.4564 23.3813 37.3579 23.25C36.6045 22.2373 35.6238 21.4156 34.4948 20.8511C33.3659 20.2866 32.1201 19.9951 30.8579 20C30.6121 20 30.3717 19.9275 30.1669 19.7916C29.9621 19.6557 29.8019 19.4624 29.7063 19.2359C29.6414 19.0821 29.608 18.9169 29.608 18.75C29.608 18.5831 29.6414 18.4178 29.7063 18.2641C29.8019 18.0376 29.9621 17.8443 30.1669 17.7084C30.3717 17.5725 30.6121 17.5 30.8579 17.5C31.5593 17.4999 32.2465 17.3032 32.8417 16.9321C33.4368 16.561 33.916 16.0304 34.2247 15.4007C34.5334 14.7709 34.6594 14.0672 34.5882 13.3695C34.517 12.6717 34.2516 12.0079 33.8221 11.4535C33.3926 10.899 32.8162 10.4761 32.1584 10.2328C31.5005 9.98954 30.7877 9.93561 30.1008 10.0772C29.4138 10.2187 28.7804 10.5501 28.2723 11.0336C27.7643 11.5171 27.402 12.1334 27.2266 12.8125C27.1856 12.9715 27.1136 13.1209 27.0149 13.2521C26.9161 13.3833 26.7925 13.4938 26.651 13.5772C26.5095 13.6607 26.353 13.7154 26.1904 13.7383C26.0278 13.7613 25.8622 13.752 25.7032 13.7109C25.5442 13.6699 25.3948 13.5979 25.2636 13.4992C25.1324 13.4004 25.0219 13.2767 24.9385 13.1353C24.855 12.9938 24.8003 12.8373 24.7774 12.6747C24.7544 12.5121 24.7637 12.3465 24.8048 12.1875C25.0481 11.2458 25.5079 10.3739 26.1476 9.64117C26.7872 8.90844 27.589 8.33511 28.4892 7.96679C29.3894 7.59848 30.3632 7.44534 31.333 7.51957C32.3028 7.59381 33.2418 7.89335 34.0755 8.39439C34.9092 8.89542 35.6144 9.58411 36.135 10.4056C36.6557 11.2272 36.9774 12.1589 37.0747 13.1267C37.1719 14.0944 37.0419 15.0715 36.695 15.9802C36.3481 16.8889 35.794 17.7041 35.0766 18.3609C36.7763 19.0969 38.2539 20.2647 39.3626 21.7484C39.4611 21.8801 39.5326 22.0299 39.5731 22.1892C39.6136 22.3486 39.6223 22.5143 39.5986 22.6771C39.575 22.8398 39.5195 22.9962 39.4352 23.1374C39.351 23.2786 39.2398 23.4018 39.1079 23.5ZM30.6891 33.125C30.7796 33.2673 30.8403 33.4264 30.8677 33.5927C30.895 33.7591 30.8885 33.9292 30.8484 34.093C30.8082 34.2567 30.7354 34.4107 30.6343 34.5455C30.5331 34.6804 30.4058 34.7934 30.2598 34.8778C30.1138 34.9622 29.9523 35.0161 29.785 35.0365C29.6176 35.0568 29.4479 35.0431 29.286 34.9961C29.1241 34.9491 28.9733 34.8699 28.8428 34.7631C28.7123 34.6564 28.6048 34.5244 28.5266 34.375C27.7392 33.0417 26.6178 31.9367 25.2729 31.1691C23.9281 30.4014 22.4064 29.9977 20.8579 29.9977C19.3094 29.9977 17.7877 30.4014 16.4429 31.1691C15.098 31.9367 13.9766 33.0417 13.1891 34.375C13.111 34.5244 13.0034 34.6564 12.873 34.7631C12.7425 34.8699 12.5917 34.9491 12.4298 34.9961C12.2679 35.0431 12.0982 35.0568 11.9308 35.0365C11.7635 35.0161 11.6019 34.9622 11.456 34.8778C11.31 34.7934 11.1826 34.6804 11.0815 34.5455C10.9804 34.4107 10.9075 34.2567 10.8674 34.093C10.8273 33.9292 10.8208 33.7591 10.8481 33.5927C10.8755 33.4264 10.9362 33.2673 11.0266 33.125C12.2385 31.0428 14.0863 29.4042 16.2985 28.45C15.0537 27.4969 14.1389 26.1777 13.6826 24.6779C13.2263 23.178 13.2515 21.5728 13.7546 20.088C14.2578 18.6031 15.2136 17.3133 16.4877 16.3998C17.7618 15.4863 19.2901 14.995 20.8579 14.995C22.4257 14.995 23.954 15.4863 25.2281 16.3998C26.5022 17.3133 27.458 18.6031 27.9612 20.088C28.4643 21.5728 28.4895 23.178 28.0332 24.6779C27.5769 26.1777 26.6621 27.4969 25.4173 28.45C27.6295 29.4042 29.4773 31.0428 30.6891 33.125ZM20.8579 27.5C21.8468 27.5 22.8135 27.2067 23.6357 26.6573C24.458 26.1079 25.0989 25.327 25.4773 24.4134C25.8557 23.4998 25.9547 22.4944 25.7618 21.5245C25.5689 20.5546 25.0927 19.6637 24.3934 18.9645C23.6942 18.2652 22.8033 17.789 21.8333 17.5961C20.8634 17.4031 19.8581 17.5022 18.9445 17.8806C18.0308 18.259 17.25 18.8999 16.7005 19.7221C16.1511 20.5444 15.8579 21.5111 15.8579 22.5C15.8579 23.8261 16.3847 25.0978 17.3224 26.0355C18.26 26.9732 19.5318 27.5 20.8579 27.5ZM12.1079 18.75C12.1079 18.4185 11.9762 18.1005 11.7418 17.8661C11.5074 17.6317 11.1894 17.5 10.8579 17.5C10.1565 17.4999 9.46924 17.3032 8.8741 16.9321C8.27895 16.561 7.7998 16.0304 7.49107 15.4007C7.18234 14.7709 7.05641 14.0672 7.12758 13.3695C7.19875 12.6717 7.46417 12.0079 7.89369 11.4535C8.32321 10.899 8.89961 10.4761 9.55743 10.2328C10.2152 9.98954 10.9281 9.93561 11.615 10.0772C12.302 10.2187 12.9354 10.5501 13.4435 11.0336C13.9515 11.5171 14.3138 12.1334 14.4891 12.8125C14.572 13.1337 14.7791 13.4087 15.0648 13.5772C15.3505 13.7457 15.6914 13.7938 16.0126 13.7109C16.3337 13.6281 16.6088 13.421 16.7773 13.1353C16.9458 12.8496 16.9939 12.5087 16.911 12.1875C16.6677 11.2458 16.2079 10.3739 15.5682 9.64117C14.9286 8.90844 14.1268 8.33511 13.2266 7.96679C12.3264 7.59848 11.3526 7.44534 10.3828 7.51957C9.41303 7.59381 8.47394 7.89335 7.64028 8.39439C6.80662 8.89542 6.1014 9.58411 5.58074 10.4056C5.06008 11.2272 4.73834 12.1589 4.64113 13.1267C4.54392 14.0944 4.67391 15.0715 5.02078 15.9802C5.36764 16.8889 5.92179 17.7041 6.63915 18.3609C4.94115 19.0976 3.46526 20.2653 2.3579 21.7484C2.15878 22.0136 2.07317 22.3471 2.11991 22.6754C2.16664 23.0038 2.3419 23.3001 2.60711 23.4992C2.87233 23.6983 3.20579 23.7839 3.53412 23.7372C3.86246 23.6905 4.15878 23.5152 4.3579 23.25C5.11131 22.2373 6.09198 21.4156 7.22095 20.8511C8.34993 20.2866 9.59567 19.9951 10.8579 20C11.1894 20 11.5074 19.8683 11.7418 19.6339C11.9762 19.3995 12.1079 19.0815 12.1079 18.75Z" fill="#888888"/>
</svg>
