<svg width="41" height="40" viewBox="0 0 41 40" fill="none" xmlns="http://www.w3.org/2000/svg">
<path d="M21.345 11.25V17.9766L27.0357 15.1313C27.3322 14.9829 27.6755 14.9584 27.99 15.0632C28.3046 15.1679 28.5647 15.3933 28.713 15.6899C28.8614 15.9864 28.8859 16.3296 28.7811 16.6442C28.6763 16.9588 28.4509 17.2188 28.1544 17.3672L20.6544 21.1172C20.4639 21.2125 20.2522 21.2576 20.0393 21.2481C19.8265 21.2386 19.6196 21.1749 19.4383 21.0629C19.2571 20.951 19.1074 20.7946 19.0036 20.6086C18.8997 20.4225 18.8452 20.2131 18.845 20V11.25C18.845 10.9185 18.9767 10.6005 19.2112 10.3661C19.4456 10.1317 19.7635 10 20.095 10C20.4266 10 20.7445 10.1317 20.9789 10.3661C21.2133 10.6005 21.345 10.9185 21.345 11.25ZM20.095 33.75C17.3755 33.75 14.7171 32.9436 12.4559 31.4327C10.1948 29.9218 8.4324 27.7744 7.3917 25.2619C6.35099 22.7494 6.07869 19.9848 6.60924 17.3175C7.13979 14.6503 8.44935 12.2003 10.3723 10.2773C12.2953 8.35432 14.7453 7.04476 17.4125 6.51421C20.0798 5.98366 22.8445 6.25596 25.3569 7.29666C27.8694 8.33737 30.0169 10.0997 31.5277 12.3609C33.0386 14.6221 33.845 17.2805 33.845 20C33.845 20.3315 33.9767 20.6495 34.2112 20.8839C34.4456 21.1183 34.7635 21.25 35.095 21.25C35.4266 21.25 35.7445 21.1183 35.9789 20.8839C36.2133 20.6495 36.345 20.3315 36.345 20C36.345 16.7861 35.392 13.6443 33.6064 10.972C31.8208 8.29969 29.2829 6.21689 26.3136 4.98696C23.3443 3.75704 20.077 3.43524 16.9248 4.06225C13.7726 4.68926 10.8772 6.23692 8.60455 8.50952C6.33195 10.7821 4.78429 13.6776 4.15728 16.8298C3.53027 19.982 3.85207 23.2493 5.082 26.2186C6.31192 29.1879 8.39472 31.7258 11.067 33.5114C13.7393 35.297 16.8811 36.25 20.095 36.25C20.4266 36.25 20.7445 36.1183 20.9789 35.8839C21.2133 35.6495 21.345 35.3315 21.345 35C21.345 34.6685 21.2133 34.3505 20.9789 34.1161C20.7445 33.8817 20.4266 33.75 20.095 33.75ZM36.3028 34.6781C36.3487 34.8379 36.3621 35.0052 36.3425 35.1702C36.3229 35.3352 36.2706 35.4947 36.1886 35.6393C36.1066 35.7838 35.9966 35.9106 35.8651 36.0121C35.7335 36.1137 35.583 36.188 35.4224 36.2307C35.2618 36.2734 35.0943 36.2836 34.9297 36.2608C34.7651 36.238 34.6066 36.1826 34.4637 36.0978C34.3207 36.0131 34.1961 35.9006 34.0971 35.7671C33.9982 35.6336 33.9268 35.4817 33.8872 35.3203C33.445 33.6594 31.8857 32.5 30.095 32.5C28.3044 32.5 26.745 33.6594 26.3029 35.3203C26.2322 35.5868 26.0755 35.8224 25.857 35.9905C25.6386 36.1587 25.3707 36.2499 25.095 36.25C24.9864 36.2497 24.8782 36.2356 24.7732 36.2078C24.4528 36.1224 24.1795 35.9133 24.0134 35.6265C23.8473 35.3396 23.8019 34.9985 23.8872 34.6781C24.2927 33.1726 25.2462 31.873 26.5607 31.0344C25.8609 30.3353 25.3841 29.4444 25.1907 28.4744C24.9974 27.5043 25.0961 26.4987 25.4743 25.5848C25.8526 24.6708 26.4935 23.8896 27.3158 23.3399C28.1382 22.7903 29.1051 22.4969 30.0943 22.4969C31.0834 22.4969 32.0503 22.7903 32.8727 23.3399C33.695 23.8896 34.3359 24.6708 34.7142 25.5848C35.0925 26.4987 35.1912 27.5043 34.9978 28.4744C34.8044 29.4444 34.3277 30.3353 33.6279 31.0344C34.9429 31.8727 35.897 33.1723 36.3028 34.6781ZM27.595 27.5C27.595 27.9945 27.7417 28.4778 28.0164 28.8889C28.2911 29.3001 28.6815 29.6205 29.1383 29.8097C29.5951 29.9989 30.0978 30.0484 30.5828 29.952C31.0677 29.8555 31.5132 29.6174 31.8628 29.2678C32.2124 28.9181 32.4505 28.4727 32.547 27.9877C32.6435 27.5028 32.594 27.0001 32.4047 26.5433C32.2155 26.0865 31.8951 25.696 31.484 25.4213C31.0728 25.1466 30.5895 25 30.095 25C29.432 25 28.7961 25.2634 28.3273 25.7322C27.8584 26.2011 27.595 26.837 27.595 27.5Z" fill="#888888"/>
</svg>
