<svg width="41" height="38" viewBox="0 0 41 38" fill="none" xmlns="http://www.w3.org/2000/svg">
<path d="M35.0521 5.85061C31.1246 1.89746 24.6427 2.09397 20.9033 6.20313C17.1636 2.09412 10.6821 1.89739 6.75451 5.85069C2.84892 9.74355 2.98197 16.1539 7.00608 19.9112C4.94734 21.8792 6.12676 25.4155 8.92894 25.7603C8.76108 27.6807 10.3942 29.4418 12.326 29.4092C12.4445 31.5233 14.5645 33.0367 16.5971 32.478C17.264 34.9967 20.4696 35.8574 22.3087 34.0036C23.3532 32.9644 24.1838 32.3092 24.2368 30.7353C25.9626 30.6872 27.4559 29.1723 27.4822 27.4459C29.2246 27.419 30.7427 25.8991 30.7696 24.1556C32.5772 24.1282 34.1445 22.4953 34.0603 20.6519L35.052 19.6594C38.8559 15.8523 38.8559 9.65766 35.0521 5.85061ZM8.50131 21.5003L9.43273 20.568C9.54729 20.4532 9.6834 20.3622 9.83323 20.3001C9.98306 20.2381 10.1437 20.2063 10.3058 20.2066C11.3901 20.1994 11.9561 21.5412 11.1787 22.3155L10.2473 23.2478C9.04164 24.3587 7.3912 22.7075 8.50131 21.5003ZM11.0984 25.9934C11.0984 25.6633 11.2269 25.353 11.4601 25.1196L12.392 24.1869C12.5064 24.072 12.6423 23.9808 12.7921 23.9188C12.9419 23.8567 13.1024 23.825 13.2645 23.8255C14.358 23.8236 14.9123 25.1622 14.1375 25.9349L13.3157 26.7575C13.0644 27.0425 12.7194 27.2353 12.333 27.2291C11.6695 27.2427 11.0847 26.6576 11.0984 25.9934ZM14.8571 30.0477C14.3782 29.5878 14.3782 28.7602 14.8571 28.3003L15.6789 27.4777C16.1581 26.9083 16.9993 26.8342 17.5346 27.368C18.0159 27.8498 18.0159 28.6336 17.5346 29.1155L16.6031 30.0478C16.1218 30.5298 15.3385 30.5297 14.8571 30.0477ZM21.6987 31.5286L20.7673 32.4608C20.6529 32.5759 20.5169 32.6672 20.367 32.7293C20.2172 32.7914 20.0565 32.8232 19.8943 32.8228C19.7321 32.8232 19.5714 32.7914 19.4215 32.7293C19.2717 32.6672 19.1356 32.5759 19.0212 32.4608C18.5424 32.0008 18.5422 31.1732 19.0213 30.7133L19.9526 29.781C20.434 29.2992 21.2173 29.2992 21.6986 29.781C22.1777 30.241 22.1777 31.0686 21.6987 31.5286ZM31.52 21.6164C31.0604 22.0958 30.2336 22.0958 29.774 21.6164L24.9231 16.7613L23.3817 18.3041L28.2326 23.1592C28.7139 23.641 28.7139 24.4249 28.2326 24.9067C27.7512 25.3887 26.968 25.3885 26.4866 24.9067L21.718 20.1339L21.6357 20.0516L20.0943 21.5944L20.1765 21.6767L24.9452 26.4495C25.4266 26.9313 25.4266 27.7153 24.9452 28.1971C24.4638 28.6789 23.6805 28.6789 23.1991 28.1971L23.1982 28.198C22.3124 27.341 21.0746 27.0588 19.9566 27.3515C19.6007 25.8959 18.1387 24.7939 16.6686 24.826C16.5973 23.2593 15.2739 21.844 13.71 21.6749C13.9164 18.9868 10.9668 17.1357 8.63901 18.4598C5.39713 15.5615 5.19745 10.4735 8.2961 7.3934C11.3769 4.28826 16.4674 4.49401 19.362 7.74592L16.6672 10.4431L18.8266 12.6044C20.4853 14.2647 23.0413 14.4932 24.9471 13.2899L31.5203 19.8689C32.0014 20.3506 32.0014 21.1346 31.52 21.6164ZM33.5107 18.1166L33.1785 18.449C33.1405 18.4071 33.1015 18.3661 33.0616 18.3261L25.0328 10.2903L24.262 11.0616C23.1885 12.1361 21.4416 12.1362 20.3679 11.0616L19.7499 10.4431L22.797 7.3934C30.1987 0.574891 40.3218 10.7132 33.5107 18.1166Z" fill="#888888"/>
</svg>
