<svg width="41" height="40" viewBox="0 0 41 40" fill="none" xmlns="http://www.w3.org/2000/svg">
<path d="M37.515 12.5188C37.163 12.1199 36.7301 11.8005 36.2452 11.5817C35.7603 11.363 35.2344 11.2499 34.7025 11.25H25.9525V8.75C25.9525 7.0924 25.294 5.50269 24.1219 4.33058C22.9498 3.15848 21.3601 2.5 19.7025 2.5C19.4702 2.49983 19.2425 2.56436 19.0449 2.68635C18.8473 2.80833 18.6876 2.98295 18.5837 3.19063L12.6806 15H5.95245C5.28941 15 4.65353 15.2634 4.18469 15.7322C3.71585 16.2011 3.45245 16.837 3.45245 17.5V31.25C3.45245 31.913 3.71585 32.5489 4.18469 33.0178C4.65353 33.4866 5.28941 33.75 5.95245 33.75H32.8275C33.7411 33.7503 34.6233 33.4171 35.3086 32.8129C35.994 32.2088 36.4351 31.3752 36.5493 30.4688L38.4243 15.4688C38.4908 14.9407 38.4441 14.4045 38.2873 13.8958C38.1305 13.3872 37.8672 12.9178 37.515 12.5188ZM5.95245 17.5H12.2025V31.25H5.95245V17.5ZM35.9431 15.1562L34.0681 30.1562C34.03 30.4584 33.883 30.7363 33.6545 30.9376C33.4261 31.139 33.132 31.2501 32.8275 31.25H14.7025V16.5453L20.4384 5.07188C21.2885 5.24202 22.0535 5.70149 22.603 6.3721C23.1525 7.0427 23.4527 7.883 23.4525 8.75V12.5C23.4525 12.8315 23.5841 13.1495 23.8186 13.3839C24.053 13.6183 24.3709 13.75 24.7025 13.75H34.7025C34.8798 13.7499 35.0552 13.7876 35.2169 13.8606C35.3786 13.9335 35.5229 14.04 35.6402 14.173C35.7576 14.3061 35.8453 14.4625 35.8975 14.632C35.9497 14.8016 35.9653 14.9803 35.9431 15.1562Z" fill="#888888"/>
</svg>
