<svg width="41" height="40" viewBox="0 0 41 40" fill="none" xmlns="http://www.w3.org/2000/svg">
<path d="M20.0475 21.25C20.0475 21.5815 19.9158 21.8995 19.6814 22.1339C19.447 22.3683 19.129 22.5 18.7975 22.5H11.2975C10.966 22.5 10.6481 22.3683 10.4136 22.1339C10.1792 21.8995 10.0475 21.5815 10.0475 21.25C10.0475 20.9185 10.1792 20.6005 10.4136 20.3661C10.6481 20.1317 10.966 20 11.2975 20H18.7975C19.129 20 19.447 20.1317 19.6814 20.3661C19.9158 20.6005 20.0475 20.9185 20.0475 21.25ZM18.7975 15H11.2975C10.966 15 10.6481 15.1317 10.4136 15.3661C10.1792 15.6005 10.0475 15.9185 10.0475 16.25C10.0475 16.5815 10.1792 16.8995 10.4136 17.1339C10.6481 17.3683 10.966 17.5 11.2975 17.5H18.7975C19.129 17.5 19.447 17.3683 19.6814 17.1339C19.9158 16.8995 20.0475 16.5815 20.0475 16.25C20.0475 15.9185 19.9158 15.6005 19.6814 15.3661C19.447 15.1317 19.129 15 18.7975 15ZM36.2975 25.2297V35C36.2995 35.2204 36.2432 35.4373 36.1343 35.6289C36.0254 35.8205 35.8678 35.9799 35.6774 36.091C35.487 36.202 35.2707 36.2608 35.0503 36.2612C34.83 36.2617 34.6134 36.2039 34.4225 36.0938L30.6725 33.9469L26.9225 36.0938C26.7317 36.2039 26.5151 36.2617 26.2947 36.2612C26.0743 36.2608 25.858 36.202 25.6676 36.091C25.4773 35.9799 25.3196 35.8205 25.2107 35.6289C25.1018 35.4373 25.0455 35.2204 25.0475 35V31.25H6.29752C5.63447 31.25 4.99859 30.9866 4.52975 30.5178C4.06091 30.0489 3.79752 29.413 3.79752 28.75V8.75C3.79752 8.08696 4.06091 7.45107 4.52975 6.98223C4.99859 6.51339 5.63447 6.25 6.29752 6.25H33.7975C34.4606 6.25 35.0964 6.51339 35.5653 6.98223C36.0341 7.45107 36.2975 8.08696 36.2975 8.75V13.5203C37.0877 14.277 37.7165 15.1858 38.1461 16.192C38.5757 17.1982 38.7972 18.2809 38.7972 19.375C38.7972 20.4691 38.5757 21.5518 38.1461 22.558C37.7165 23.5642 37.0877 24.473 36.2975 25.2297ZM25.0475 28.75V25.2297C23.6853 23.916 22.8245 22.168 22.6134 20.2874C22.4024 18.4067 22.8545 16.5114 23.8916 14.9285C24.9287 13.3456 26.4859 12.1743 28.2944 11.6168C30.1028 11.0594 32.0492 11.1507 33.7975 11.875V8.75H6.29752V28.75H25.0475ZM33.7975 26.875C32.8076 27.2886 31.7454 27.5016 30.6725 27.5016C29.5996 27.5016 28.5375 27.2886 27.5475 26.875V32.8469L30.0475 31.4156C30.2364 31.3076 30.4502 31.2508 30.6678 31.2508C30.8854 31.2508 31.0992 31.3076 31.2881 31.4156L33.7881 32.8469L33.7975 26.875ZM36.2975 19.375C36.2975 18.2625 35.9676 17.1749 35.3495 16.2499C34.7314 15.3249 33.8529 14.6039 32.8251 14.1782C31.7973 13.7524 30.6663 13.641 29.5751 13.8581C28.484 14.0751 27.4817 14.6109 26.695 15.3975C25.9084 16.1842 25.3726 17.1865 25.1556 18.2776C24.9386 19.3688 25.05 20.4998 25.4757 21.5276C25.9014 22.5554 26.6224 23.4339 27.5474 24.052C28.4725 24.6701 29.56 25 30.6725 25C31.4112 25 32.1427 24.8545 32.8251 24.5718C33.5076 24.2891 34.1277 23.8748 34.65 23.3525C35.1723 22.8301 35.5867 22.21 35.8693 21.5276C36.152 20.8451 36.2975 20.1137 36.2975 19.375Z" fill="#888888"/>
</svg>
