<svg width="32" height="22" viewBox="0 0 32 22" fill="none" xmlns="http://www.w3.org/2000/svg">
<path fill-rule="evenodd" clip-rule="evenodd" d="M27.9915 0.657103C29.3445 1.01929 30.4078 2.08255 30.77 3.43556C31.4245 5.88546 31.4271 11 31.4271 11C31.4271 11 31.4271 16.1146 30.77 18.5645C30.4078 19.9175 29.3445 20.9807 27.9915 21.3429C25.5417 22 15.7135 22 15.7135 22C15.7135 22 5.88546 22 3.43555 21.3429C2.08255 20.9807 1.01929 19.9175 0.657103 18.5645C0 16.1146 0 11 0 11C0 11 0 5.88546 0.657103 3.43556C1.01929 2.08255 2.08255 1.01929 3.43555 0.657103C5.88546 0 15.7135 0 15.7135 0C15.7135 0 25.5417 0 27.9915 0.657103ZM20.7324 11.0007L12.5677 15.7142V6.28711L20.7324 11.0007Z" fill="#9C9C9C"/>
</svg>
