<svg width="111" height="80" viewBox="0 0 111 80" fill="none" xmlns="http://www.w3.org/2000/svg">
<path d="M9.69921 66.3306V74.4686H7.50331V71.0619H2.1959V74.4686H0V66.3306C-8.01169e-09 66.0001 0.0651462 65.6727 0.191718 65.3673C0.31829 65.0619 0.503808 64.7844 0.737676 64.5507C0.971545 64.317 1.24918 64.1316 1.55474 64.0052C1.86029 63.8787 2.18777 63.8136 2.51847 63.8137H7.18074C7.84859 63.8137 8.48909 64.0789 8.96137 64.5509C9.43366 65.0229 9.69907 65.663 9.69921 66.3306ZM7.50276 68.8669V66.6669C7.50283 66.5804 7.48585 66.4948 7.4528 66.4149C7.41974 66.335 7.37125 66.2623 7.3101 66.2012C7.24895 66.14 7.17634 66.0914 7.09642 66.0583C7.0165 66.0252 6.93083 66.0082 6.84432 66.0082H2.85379C2.76727 66.0082 2.68161 66.0252 2.60168 66.0583C2.52176 66.0914 2.44915 66.14 2.388 66.2012C2.32685 66.2623 2.27837 66.335 2.24531 66.4149C2.21225 66.4948 2.19527 66.5804 2.19535 66.6669V68.8669H7.50276Z" fill="white"/>
<path d="M18.702 72.0808C18.7631 72.0197 18.8117 71.9471 18.8448 71.8673C18.8779 71.7874 18.8949 71.7018 18.8948 71.6154V63.8137H21.0907V71.9517C21.0907 72.2822 21.0256 72.6096 20.899 72.915C20.7724 73.2204 20.5869 73.4979 20.3531 73.7316C20.1192 73.9653 19.8416 74.1507 19.536 74.2771C19.2304 74.4036 18.903 74.4687 18.5723 74.4686H13.9122C13.2444 74.4686 12.6039 74.2034 12.1316 73.7314C11.6593 73.2594 11.3939 72.6193 11.3937 71.9517V63.8137H13.5896V71.6154C13.5896 71.7894 13.6585 71.9564 13.7813 72.0798C13.904 72.2032 14.0706 72.2731 14.2448 72.2741H18.2353C18.322 72.2742 18.4078 72.2572 18.4879 72.224C18.568 72.1908 18.6408 72.1421 18.702 72.0808Z" fill="white"/>
<path d="M32.0679 66.0082H28.1572V74.4686H25.9613V66.0082H22.05V63.8132H32.0679V66.0082Z" fill="white"/>
<path d="M35.4546 63.8137H41.0813C41.4056 63.8136 41.7269 63.8774 42.0266 64.0015C42.3263 64.1255 42.5986 64.3073 42.828 64.5366C43.0574 64.7658 43.2393 65.038 43.3635 65.3376C43.4876 65.6371 43.5515 65.9582 43.5515 66.2824V71.9993C43.5516 72.3236 43.4878 72.6447 43.3636 72.9443C43.2395 73.244 43.0576 73.5162 42.8282 73.7455C42.5988 73.9748 42.3264 74.1567 42.0267 74.2808C41.727 74.4048 41.4057 74.4687 41.0813 74.4686H35.4546C34.7995 74.4686 34.1712 74.2084 33.7079 73.7453C33.2446 73.2823 32.9844 72.6542 32.9844 71.9993V66.2824C32.9845 65.6276 33.2448 64.9997 33.7081 64.5368C34.1713 64.0738 34.7996 63.8137 35.4546 63.8137ZM35.872 72.2741H40.6639C40.8474 72.2741 41.0233 72.2013 41.153 72.0716C41.2828 71.9419 41.3556 71.7661 41.3556 71.5827V66.6996C41.3556 66.5162 41.2828 66.3404 41.153 66.2107C41.0233 66.081 40.8474 66.0082 40.6639 66.0082H35.872C35.6885 66.0082 35.5126 66.081 35.3829 66.2107C35.2531 66.3404 35.1803 66.5162 35.1803 66.6996V71.5827C35.1803 71.7661 35.2531 71.9419 35.3829 72.0716C35.5126 72.2013 35.6885 72.2741 35.872 72.2741Z" fill="white"/>
<path d="M47.5101 72.0808C47.6337 72.2044 47.8014 72.2739 47.9762 72.2741H54.5922V74.4686H47.6404C47.3096 74.4687 46.9821 74.4036 46.6765 74.2771C46.3709 74.1506 46.0932 73.9652 45.8594 73.7314C45.6255 73.4976 45.44 73.2201 45.3134 72.9146C45.1869 72.6091 45.1218 72.2817 45.1219 71.9511V66.3306C45.1218 66.0001 45.1869 65.6729 45.3134 65.3675C45.4398 65.0621 45.6252 64.7847 45.859 64.5509C46.0928 64.3172 46.3703 64.1318 46.6758 64.0053C46.9812 63.8788 47.3086 63.8137 47.6392 63.8137H54.4564V66.0082H47.9762C47.8897 66.0082 47.804 66.0252 47.724 66.0583C47.6441 66.0914 47.5714 66.14 47.5102 66.2011C47.4491 66.2623 47.4005 66.3349 47.3674 66.4148C47.3343 66.4947 47.3172 66.5804 47.3172 66.6669V71.6154C47.3175 71.7899 47.3868 71.9572 47.5101 72.0808Z" fill="white"/>
<path d="M65.388 72.2741V74.4686H55.9188V63.8137H65.2505V66.0082H58.1141V68.0436H64.8387V70.2387H58.1141V72.2741H65.388Z" fill="white"/>
<path d="M77.4504 63.8132V74.4598H74.7297L69.1241 67.2354V74.4692H66.9282V63.8132H69.3984L75.2551 71.4066V63.8132H77.4504Z" fill="white"/>
<path d="M88.5055 66.0082H84.5942V74.4686H82.3988V66.0082H78.4875V63.8132H88.5055V66.0082Z" fill="white"/>
<path d="M99.013 72.2741V74.4686H89.5438V63.8137H98.8761V66.0082H91.7392V68.0436H98.4638V70.2387H91.7392V72.2741H99.013Z" fill="white"/>
<path d="M104.907 70.5129H102.749V74.4686H100.553V63.8137H107.552C107.877 63.8136 108.198 63.8774 108.497 64.0015C108.797 64.1255 109.069 64.3073 109.299 64.5366C109.528 64.7658 109.71 65.038 109.834 65.3376C109.959 65.6371 110.022 65.9582 110.022 66.2824V68.0436C110.022 68.6588 109.792 69.2518 109.377 69.7063C108.963 70.1609 108.393 70.4444 107.781 70.5013L110.847 74.4686H107.965L104.907 70.5129ZM102.749 68.3184H107.134C107.225 68.3186 107.315 68.3008 107.399 68.2661C107.483 68.2314 107.559 68.1805 107.623 68.1163C107.687 68.052 107.738 67.9757 107.773 67.8918C107.808 67.8078 107.826 67.7179 107.825 67.627V66.6996C107.825 66.5162 107.753 66.3404 107.623 66.2107C107.493 66.081 107.317 66.0082 107.134 66.0082H102.748L102.749 68.3184Z" fill="white"/>
<path d="M0 79.3131L1.04197 76.5984H1.6073L2.67033 79.3131H2.10002L1.8689 78.6981H0.775937L0.554241 79.3131H0ZM0.900641 78.2693H1.74087L1.3141 77.1674L0.900641 78.2693Z" fill="white"/>
<path d="M3.04376 79.3131V76.5984H4.01645C4.28138 76.5984 4.49513 76.6562 4.65771 76.7718C4.82029 76.8874 4.90139 77.0584 4.90102 77.2848C4.90217 77.3677 4.88315 77.4497 4.8456 77.5236C4.76997 77.669 4.64671 77.784 4.49643 77.8494C4.64063 77.8938 4.76785 77.9812 4.86112 78.0998C4.95936 78.2262 5.01015 78.383 5.00467 78.543C5.0075 78.6859 4.96734 78.8264 4.88938 78.9463C4.80772 79.0665 4.69354 79.1611 4.56016 79.2189C4.40113 79.2877 4.22904 79.3211 4.05581 79.317L3.04376 79.3131ZM3.54812 77.7419H3.94163C4.0262 77.7438 4.11024 77.728 4.18827 77.6953C4.25461 77.668 4.31145 77.6217 4.35177 77.5624C4.39072 77.4993 4.41001 77.426 4.40719 77.3519C4.41019 77.2999 4.40056 77.2481 4.37913 77.2007C4.3577 77.1533 4.32511 77.1119 4.28415 77.0798C4.18038 77.0106 4.05669 76.9775 3.93221 76.9856H3.54812V77.7419ZM3.54812 78.9269H3.97267C4.14227 78.9269 4.26919 78.8929 4.35343 78.825C4.39664 78.7873 4.43051 78.7402 4.45234 78.6872C4.47418 78.6342 4.48339 78.5769 4.47925 78.5197C4.4829 78.4626 4.47358 78.4053 4.45198 78.3523C4.43039 78.2992 4.39708 78.2517 4.35454 78.2133C4.27067 78.1421 4.14411 78.1064 3.97489 78.1064H3.54812V78.9269Z" fill="white"/>
<path d="M6.03847 79.3132V77.0589H5.28748V76.5974H7.29604V77.0589H6.54505V79.3132H6.03847Z" fill="white"/>
<path d="M8.88295 79.3713C8.68728 79.3731 8.49314 79.3366 8.31153 79.2638C8.14092 79.1948 7.98555 79.093 7.85428 78.9641C7.72479 78.8357 7.62261 78.6825 7.55388 78.5137C7.41124 78.1542 7.41124 77.7539 7.55388 77.3945C7.62275 77.2259 7.72492 77.0729 7.85428 76.9447C7.98531 76.8156 8.14075 76.7139 8.31153 76.6455C8.4933 76.5734 8.68738 76.5372 8.88295 76.5391C9.07798 76.5379 9.27131 76.5756 9.4516 76.6499C9.62205 76.7198 9.77705 76.8226 9.90774 76.9524C10.1051 77.1552 10.2388 77.4112 10.2926 77.689C10.3463 77.9667 10.3178 78.2541 10.2104 78.5159C10.1402 78.6845 10.0373 78.8376 9.90774 78.9663C9.77677 79.0951 9.6218 79.1969 9.4516 79.266C9.27077 79.338 9.07757 79.3737 8.88295 79.3713ZM8.88295 78.8959C9.00552 78.8971 9.12714 78.8743 9.24099 78.8289C9.35067 78.7857 9.45011 78.72 9.53296 78.6362C9.6158 78.5523 9.68021 78.4521 9.72207 78.3419C9.76976 78.2182 9.79328 78.0866 9.79135 77.9541C9.79575 77.7802 9.75427 77.6082 9.67108 77.4555C9.59463 77.3181 9.48164 77.2046 9.34463 77.1275C9.20361 77.0489 9.04439 77.0088 8.88295 77.0112C8.7601 77.0098 8.63815 77.0322 8.5238 77.0771C8.41571 77.12 8.31761 77.1847 8.23559 77.2671C8.15216 77.3521 8.08691 77.4531 8.04383 77.5641C7.99613 77.6877 7.97261 77.8194 7.97455 77.9519C7.96995 78.1257 8.01124 78.2977 8.09426 78.4505C8.16993 78.5879 8.2824 78.7014 8.41905 78.7785C8.56074 78.8575 8.7207 78.898 8.88295 78.8959Z" fill="white"/>
<path d="M10.8344 79.3131V76.5984H11.321L12.404 78.3712H12.2062L13.2443 76.5984H13.7259V79.3131H13.2348L13.2426 77.2566L13.3357 77.2898L12.4583 78.7524H12.1036L11.2046 77.2898L11.2883 77.2566L11.2961 79.3131H10.8344Z" fill="white"/>
<path d="M15.6798 79.3713C15.4842 79.3731 15.29 79.3366 15.1084 79.2638C14.9378 79.1948 14.7824 79.093 14.6512 78.9641C14.5217 78.8357 14.4195 78.6825 14.3508 78.5137C14.2081 78.1542 14.2081 77.7539 14.3508 77.3945C14.4196 77.2259 14.5218 77.0729 14.6512 76.9447C14.7822 76.8156 14.9376 76.7139 15.1084 76.6455C15.2902 76.5734 15.4843 76.5372 15.6798 76.5391C15.8749 76.5379 16.0682 76.5756 16.2485 76.6499C16.419 76.7197 16.574 76.8225 16.7046 76.9524C16.9019 77.1552 17.0357 77.4112 17.0894 77.689C17.1432 77.9667 17.1146 78.2541 17.0072 78.5159C16.937 78.6851 16.8338 78.8386 16.7035 78.9674C16.5732 79.0962 16.4185 79.1977 16.2485 79.266C16.0677 79.338 15.8744 79.3737 15.6798 79.3713ZM15.6798 78.8959C15.8024 78.8971 15.924 78.8743 16.0379 78.8289C16.1463 78.786 16.2447 78.7213 16.3272 78.6389C16.411 78.5541 16.4765 78.453 16.5195 78.3419C16.5667 78.2181 16.5901 78.0865 16.5882 77.9541C16.5926 77.7802 16.5511 77.6082 16.468 77.4555C16.3916 77.3183 16.2788 77.2048 16.1421 77.1275C16.0008 77.049 15.8414 77.0089 15.6798 77.0112C15.557 77.0098 15.435 77.0322 15.3207 77.0771C15.2127 77.1199 15.1147 77.1846 15.033 77.2671C14.9492 77.3519 14.8838 77.453 14.8407 77.5641C14.793 77.6877 14.7695 77.8194 14.7714 77.9519C14.7668 78.1257 14.8081 78.2977 14.8911 78.4505C14.9668 78.5879 15.0793 78.7014 15.2159 78.7785C15.3576 78.8575 15.5176 78.898 15.6798 78.8959Z" fill="white"/>
<path d="M17.6313 79.3131V76.5984H19.3855V77.0416H18.1356V77.7064H18.6034C18.9023 77.7064 19.1414 77.7742 19.3206 77.9097C19.4996 78.046 19.5894 78.246 19.5894 78.5114C19.5939 78.6651 19.5527 78.8167 19.4708 78.9469C19.3882 79.071 19.2702 79.1675 19.1322 79.2239C18.9636 79.2916 18.7828 79.324 18.6012 79.3192L17.6313 79.3131ZM18.1356 78.9253H18.5624C18.7243 78.9253 18.8488 78.8898 18.936 78.8189C18.9803 78.7812 19.0153 78.7337 19.0381 78.6801C19.0609 78.6265 19.0709 78.5684 19.0673 78.5103C19.0701 78.4524 19.0601 78.3947 19.038 78.3411C19.0158 78.2876 18.9821 78.2396 18.9393 78.2006C18.8386 78.1211 18.7121 78.0817 18.584 78.0898H18.1356V78.9253Z" fill="white"/>
<path d="M20.1219 79.3131V76.5984H20.6207V78.5014L21.8955 76.5984H22.3909V79.3131H21.8921V77.3962L20.6174 79.3147L20.1219 79.3131Z" fill="white"/>
<path d="M22.9995 79.362L22.8188 78.8982C22.8962 78.875 22.9707 78.8426 23.0405 78.8018C23.1028 78.7643 23.1557 78.7129 23.1951 78.6517C23.2418 78.574 23.2749 78.489 23.2932 78.4002C23.3204 78.2699 23.3373 78.1376 23.3437 78.0046C23.3533 77.8451 23.3581 77.65 23.3581 77.4196V76.5974H25.3062V79.3121H24.8019V77.0578H23.8391V77.3996C23.8391 77.6789 23.8305 77.9206 23.8131 78.1248C23.8007 78.3002 23.7725 78.4742 23.7289 78.6445C23.6975 78.7704 23.6446 78.89 23.5726 78.998C23.5093 79.0897 23.4273 79.1669 23.332 79.2246C23.228 79.2853 23.1161 79.3315 22.9995 79.362Z" fill="white"/>
<path d="M25.9938 79.3131V76.5984H26.4926V78.5014L27.7673 76.5984H28.2601V79.3131H27.7612V77.3962L26.4865 79.3147L25.9938 79.3131Z" fill="white"/>
<path d="M29.875 79.3131V76.5984H32.118V79.3131H31.6137V77.0588H30.3794V79.3131H29.875Z" fill="white"/>
<path d="M34.0735 79.3713C33.8779 79.3731 33.6837 79.3366 33.5021 79.2638C33.3314 79.1951 33.1759 79.0932 33.0449 78.9641C32.9154 78.8356 32.813 78.6824 32.7439 78.5137C32.602 78.1541 32.602 77.7541 32.7439 77.3945C32.8135 77.2252 32.9164 77.0715 33.0467 76.9428C33.177 76.8142 33.3319 76.713 33.5021 76.6455C33.6839 76.5734 33.878 76.5372 34.0735 76.5391C34.2686 76.5379 34.4619 76.5756 34.6422 76.6499C34.8126 76.7198 34.9676 76.8226 35.0983 76.9524C35.2956 77.1552 35.4294 77.4112 35.4832 77.689C35.5369 77.9667 35.5083 78.2541 35.4009 78.5159C35.3308 78.6845 35.2279 78.8376 35.0983 78.9663C34.9674 79.0951 34.8124 79.1969 34.6422 79.266C34.4614 79.338 34.2681 79.3737 34.0735 79.3713ZM34.0735 78.8959C34.1961 78.8971 34.3177 78.8743 34.4316 78.8289C34.5413 78.7857 34.6407 78.72 34.7235 78.6362C34.8064 78.5523 34.8708 78.4521 34.9127 78.3419C34.9602 78.2182 34.9835 78.0866 34.9814 77.9541C34.9861 77.7802 34.9446 77.6081 34.8611 77.4555C34.785 77.318 34.6722 77.2045 34.5352 77.1275C34.3942 77.0489 34.235 77.0088 34.0735 77.0112C33.9507 77.0097 33.8287 77.0321 33.7144 77.0771C33.6062 77.1199 33.5081 77.1846 33.4262 77.2671C33.3426 77.352 33.2771 77.4531 33.2339 77.5641C33.1866 77.6878 33.1633 77.8194 33.1651 77.9519C33.1607 78.1256 33.2018 78.2975 33.2843 78.4505C33.3602 78.5879 33.4728 78.7015 33.6096 78.7785C33.7513 78.8577 33.9113 78.8982 34.0735 78.8959Z" fill="white"/>
<path d="M37.7328 79.313V77.0587H36.7468V77.4006C36.7496 77.675 36.7337 77.9493 36.6992 78.2216C36.6766 78.4126 36.6264 78.5992 36.5501 78.7756C36.4905 78.9107 36.3976 79.0285 36.2802 79.118C36.1576 79.2056 36.0187 79.2678 35.8717 79.3009L35.6949 78.8853C35.797 78.8642 35.8937 78.8225 35.9792 78.7629C36.0595 78.7009 36.1198 78.6167 36.1527 78.5208C36.2012 78.3811 36.2306 78.2356 36.2403 78.0881C36.2569 77.9071 36.2652 77.677 36.2652 77.3978V76.5945H38.2372V79.3092L37.7328 79.313ZM35.6938 80V78.8865L36.0141 78.902L36.1887 78.8499H38.6706V80H38.1934V79.313H36.1721V80H35.6938Z" fill="white"/>
<path d="M40.8282 79.3713C40.6344 79.3735 40.4414 79.3466 40.2556 79.2915C40.0915 79.2427 39.9372 79.1652 39.8 79.0627L40.0306 78.6633C40.1298 78.7482 40.2441 78.8136 40.3676 78.8561C40.4998 78.9037 40.6394 78.9277 40.7799 78.927C40.8896 78.9295 40.9987 78.9119 41.102 78.8749C41.1839 78.8459 41.2566 78.7956 41.3126 78.7292C41.3622 78.6678 41.3887 78.5909 41.3874 78.512C41.3908 78.456 41.3806 78.3999 41.3576 78.3487C41.3347 78.2975 41.2996 78.2526 41.2555 78.2178C41.169 78.1502 41.0334 78.1164 40.8487 78.1164H40.3111V77.7187H40.8099C40.9007 77.7208 40.9912 77.7057 41.0765 77.6743C41.1448 77.6494 41.2045 77.6051 41.2483 77.5469C41.2894 77.4889 41.3106 77.4191 41.3087 77.348C41.3109 77.2793 41.29 77.2118 41.2494 77.1563C41.2038 77.1001 41.1421 77.0591 41.0726 77.0389C40.98 77.0102 40.8835 76.9967 40.7866 76.999C40.6626 76.9989 40.5394 77.0199 40.4225 77.061C40.3123 77.0987 40.2104 77.1574 40.1226 77.2339L39.8882 76.8633C40.0126 76.7547 40.1578 76.6725 40.3149 76.6217C40.4876 76.5647 40.6685 76.5363 40.8503 76.5375C41.0257 76.5333 41.2003 76.5627 41.3647 76.6239C41.4972 76.6723 41.6127 76.7581 41.6972 76.871C41.7764 76.9845 41.817 77.1205 41.8131 77.2588C41.8131 77.3425 41.7941 77.4251 41.7576 77.5004C41.7203 77.5781 41.6701 77.6489 41.6091 77.7098C41.5514 77.7686 41.4834 77.8163 41.4085 77.8505C41.5526 77.8946 41.6805 77.9804 41.7759 78.0971C41.8726 78.2206 41.9219 78.3747 41.915 78.5314C41.9164 78.6844 41.869 78.8338 41.7798 78.958C41.6828 79.0904 41.5524 79.1946 41.4018 79.2599C41.221 79.3383 41.0252 79.3763 40.8282 79.3713Z" fill="white"/>
<path d="M42.1344 79.3131L43.1764 76.5984H43.7389L44.8025 79.3131H44.2339L44.0033 78.6981H42.9103L42.6886 79.3131H42.1344ZM43.0345 78.2693H43.8753L43.448 77.1674L43.0345 78.2693Z" fill="white"/>
<path d="M45.175 79.3132V76.5985H45.6794V77.6539H46.186V78.1165H45.6794V79.3154L45.175 79.3132ZM46.8538 79.3132L45.7454 77.8894L46.733 76.5974H47.3582L46.3606 77.8872L47.5018 79.3132H46.8538Z" fill="white"/>
<path d="M47.6313 79.3131L48.6738 76.5984H49.2364L50.3 79.3131H49.7313L49.5002 78.6981H48.4078L48.1861 79.3131H47.6313ZM48.5319 78.2693H49.3722L48.9454 77.1674L48.5319 78.2693Z" fill="white"/>
<path d="M51.4537 79.3712C51.26 79.3735 51.0669 79.3466 50.8812 79.2914C50.7168 79.2427 50.5624 79.1652 50.425 79.0626L50.6556 78.6632C50.7548 78.7481 50.8691 78.8135 50.9926 78.856C51.1248 78.9036 51.2644 78.9276 51.4049 78.9269C51.5146 78.9294 51.6237 78.9118 51.727 78.8748C51.8089 78.8459 51.8817 78.7956 51.9376 78.7291C51.9872 78.6677 52.0137 78.5908 52.0124 78.5119C52.0159 78.4559 52.0058 78.3998 51.9828 78.3486C51.9598 78.2973 51.9247 78.2524 51.8805 78.2177C51.7925 78.1513 51.656 78.118 51.4709 78.118H50.9361V77.7202H51.4349C51.5257 77.7223 51.6162 77.7073 51.7015 77.6759C51.7698 77.6509 51.8295 77.6067 51.8733 77.5485C51.9147 77.4906 51.9359 77.4207 51.9337 77.3496C51.9359 77.2809 51.915 77.2134 51.8744 77.1579C51.8288 77.1017 51.7671 77.0607 51.6976 77.0405C51.605 77.0118 51.5085 76.9983 51.4116 77.0006C51.2873 77.0008 51.164 77.0222 51.0469 77.0637C50.9368 77.1013 50.8352 77.16 50.7476 77.2366L50.5126 76.8659C50.637 76.7574 50.7822 76.6752 50.9394 76.6244C51.1123 76.5674 51.2933 76.5389 51.4753 76.5402C51.6505 76.536 51.8249 76.5654 51.9891 76.6266C52.1217 76.6748 52.2373 76.7607 52.3217 76.8737C52.4009 76.9872 52.4415 77.1232 52.4375 77.2615C52.4375 77.3452 52.4186 77.4278 52.3821 77.5031C52.3448 77.5808 52.2945 77.6516 52.2335 77.7125C52.176 77.7714 52.1079 77.8191 52.0329 77.8532C52.177 77.8973 52.3049 77.9831 52.4004 78.0997C52.4973 78.2232 52.5466 78.3773 52.5395 78.5341C52.5411 78.6871 52.4937 78.8365 52.4042 78.9607C52.3074 79.0932 52.1769 79.1974 52.0262 79.2626C51.8456 79.3399 51.6502 79.377 51.4537 79.3712Z" fill="white"/>
<path d="M54.175 79.3131V76.5984H54.6739V78.5014L55.9486 76.5984H56.4419V79.3131H55.9431V77.3962L54.6683 79.3147L54.175 79.3131Z" fill="white"/>
<path d="M57.9037 79.3713C57.71 79.3736 57.517 79.3467 57.3312 79.2916C57.1669 79.2427 57.0125 79.1652 56.8751 79.0627L57.1062 78.6633C57.2052 78.7482 57.3193 78.8136 57.4426 78.8561C57.5748 78.9037 57.7144 78.9277 57.855 78.927C57.9648 78.9295 58.0741 78.9118 58.1775 78.8749C58.2594 78.8459 58.3321 78.7956 58.3881 78.7292C58.4374 78.6676 58.4636 78.5909 58.4624 78.5121C58.4659 78.456 58.4558 78.3999 58.4328 78.3487C58.4098 78.2974 58.3747 78.2525 58.3305 78.2179C58.2429 78.1514 58.1088 78.1181 57.9209 78.1181H57.3839V77.7204H57.8827C57.9737 77.7225 58.0643 77.7074 58.1498 77.676C58.218 77.6508 58.2777 77.6066 58.3216 77.5486C58.3626 77.4906 58.3836 77.4208 58.3815 77.3497C58.3839 77.2811 58.3632 77.2136 58.3227 77.158C58.2769 77.102 58.2153 77.0611 58.1459 77.0406C58.0532 77.0119 57.9564 76.9984 57.8594 77.0007C57.7355 77.0006 57.6126 77.0216 57.4958 77.0627C57.3856 77.1003 57.2837 77.159 57.196 77.2356L56.961 76.865C57.0857 76.7565 57.231 76.6744 57.3883 76.6234C57.561 76.5664 57.7418 76.538 57.9237 76.5392C58.0991 76.5351 58.2736 76.5644 58.438 76.6256C58.5705 76.674 58.6861 76.7598 58.7706 76.8727C58.8496 76.9863 58.89 77.1222 58.8858 77.2605C58.8857 77.3442 58.8668 77.4267 58.8304 77.5021C58.7931 77.5798 58.7429 77.6506 58.6819 77.7115C58.6241 77.7705 58.5559 77.8182 58.4807 77.8522C58.6251 77.8962 58.7531 77.982 58.8487 78.0988C58.9455 78.2223 58.9946 78.3764 58.9873 78.5331C58.9888 78.686 58.9416 78.8354 58.8526 78.9597C58.7555 79.0922 58.6248 79.1964 58.474 79.2616C58.2941 79.3391 58.0995 79.3765 57.9037 79.3713Z" fill="white"/>
<path d="M60.2375 79.3131L61.0329 78.1802C60.8476 78.1455 60.6781 78.0532 60.5485 77.9165C60.4296 77.7782 60.3676 77.6 60.375 77.4178C60.3704 77.2613 60.4127 77.107 60.4964 76.9746C60.5807 76.8489 60.7002 76.7508 60.84 76.6926C61.0055 76.6239 61.1835 76.5905 61.3627 76.5946H62.3758V79.3093H61.8715V78.2461H61.5433L60.8228 79.3093L60.2375 79.3131ZM61.3743 77.8367H61.8731V77.0201H61.3976C61.2646 77.0122 61.1326 77.0474 61.0212 77.1203C60.9756 77.1551 60.9393 77.2006 60.9156 77.2528C60.8919 77.305 60.8815 77.3623 60.8855 77.4195C60.8818 77.4771 60.891 77.5348 60.9125 77.5884C60.934 77.642 60.9672 77.6901 61.0096 77.7292C61.0905 77.8007 61.213 77.8395 61.3743 77.8395V77.8367Z" fill="white"/>
<path d="M63.0594 79.3131V76.5984H65.303V79.3131H64.7981V77.0588H63.5644V79.3131H63.0594Z" fill="white"/>
<path d="M67.2548 79.3713C67.0592 79.3731 66.865 79.3366 66.6834 79.2638C66.5128 79.1948 66.3574 79.093 66.2262 78.9641C66.0967 78.8357 65.9945 78.6825 65.9258 78.5137C65.7831 78.1542 65.7831 77.7539 65.9258 77.3945C65.9946 77.2259 66.0968 77.0729 66.2262 76.9447C66.3572 76.8156 66.5126 76.7139 66.6834 76.6455C66.8652 76.5734 67.0593 76.5372 67.2548 76.5391C67.4499 76.5379 67.6432 76.5756 67.8235 76.6499C67.9948 76.7196 68.1507 76.8226 68.2818 76.953C68.4792 77.1558 68.6129 77.4118 68.6667 77.6895C68.7204 77.9673 68.6919 78.2547 68.5845 78.5164C68.5143 78.6856 68.411 78.8391 68.2807 78.9679C68.1504 79.0967 67.9957 79.1983 67.8257 79.2666C67.6442 79.3386 67.4502 79.3742 67.2548 79.3713ZM67.2548 78.8959C67.3774 78.8971 67.499 78.8743 67.6129 78.8289C67.7213 78.786 67.8198 78.7213 67.9022 78.6389C67.986 78.5541 68.0515 78.453 68.0945 78.3419C68.1418 78.2181 68.1651 78.0865 68.1632 77.9541C68.1679 77.7802 68.1264 77.6081 68.043 77.4555C67.9666 77.3183 67.8538 77.2048 67.7171 77.1275C67.5758 77.049 67.4164 77.0089 67.2548 77.0112C67.1322 77.0098 67.0104 77.0321 66.8962 77.0771C66.788 77.1197 66.6899 77.1844 66.608 77.2671C66.5243 77.3519 66.4588 77.453 66.4157 77.5641C66.368 77.6877 66.3445 77.8194 66.3464 77.9519C66.3418 78.1257 66.3831 78.2977 66.4662 78.4505C66.5418 78.5879 66.6543 78.7014 66.7909 78.7785C66.9326 78.8575 67.0926 78.898 67.2548 78.8959Z" fill="white"/>
<path d="M69.2063 79.3131V76.5984H69.7107V77.6538H70.945V76.5984H71.4499V79.3131H70.945V78.1164H69.7107V79.3153L69.2063 79.3131Z" fill="white"/>
<path d="M72.1376 79.3131V76.5984H72.6364V78.5014L73.9111 76.5984H74.4039V79.3131H73.905V77.3962L72.6303 79.3147L72.1376 79.3131Z" fill="white"/>
<path d="M75.0875 79.3131V76.5984H75.5863V78.5014L76.8611 76.5984H77.3544V79.3131H76.8555V77.3962L75.5808 79.3147L75.0875 79.3131Z" fill="white"/>
<path d="M77.9786 79.9358L77.8157 79.7142C77.914 79.6699 78.0055 79.6117 78.0873 79.5413C78.1557 79.486 78.2122 79.4174 78.2535 79.3396C78.1931 79.3444 78.1324 79.3344 78.0767 79.3103C78.0255 79.289 77.9814 79.2534 77.9498 79.2078C77.9174 79.1612 77.9007 79.1055 77.9021 79.0488C77.9004 79.0069 77.9076 78.9651 77.9232 78.9261C77.9387 78.8872 77.9624 78.852 77.9925 78.8227C78.0235 78.7937 78.0599 78.7712 78.0996 78.7563C78.1394 78.7415 78.1817 78.7347 78.2241 78.7363C78.2722 78.7346 78.3202 78.7431 78.3647 78.7614C78.4092 78.7796 78.4494 78.8072 78.4824 78.8421C78.5517 78.9216 78.5871 79.025 78.5811 79.1302C78.5803 79.2281 78.5574 79.3245 78.514 79.4122C78.4637 79.5142 78.3958 79.6065 78.3134 79.6848C78.2124 79.7818 78.1 79.8661 77.9786 79.9358Z" fill="white"/>
<path d="M80.0375 79.3132V76.5985H80.5419V77.6539H81.049V78.1165H80.5419V79.3154L80.0375 79.3132ZM81.7163 79.3132L80.6079 77.8894L81.5955 76.5974H82.2207L81.2231 77.8872L82.3642 79.3132H81.7163Z" fill="white"/>
<path d="M83.858 79.3713C83.6623 79.3731 83.4682 79.3366 83.2866 79.2638C83.1159 79.1948 82.9606 79.093 82.8293 78.9641C82.6998 78.8357 82.5976 78.6825 82.5289 78.5137C82.3863 78.1542 82.3863 77.7539 82.5289 77.3945C82.5978 77.2259 82.7 77.0729 82.8293 76.9447C82.9603 76.8156 83.1158 76.7139 83.2866 76.6455C83.4683 76.5734 83.6624 76.5372 83.858 76.5391C84.053 76.5379 84.2463 76.5756 84.4266 76.6499C84.5971 76.7198 84.7521 76.8226 84.8828 76.9524C85.0801 77.1552 85.2138 77.4112 85.2676 77.689C85.3214 77.9667 85.2928 78.2541 85.1854 78.5159C85.1152 78.6845 85.0124 78.8376 84.8828 78.9663C84.7518 79.0951 84.5968 79.1969 84.4266 79.266C84.2458 79.338 84.0526 79.3737 83.858 79.3713ZM83.858 78.8959C83.9806 78.8971 84.1022 78.8743 84.216 78.8289C84.3257 78.7857 84.4252 78.72 84.508 78.6362C84.5908 78.5523 84.6552 78.4521 84.6971 78.3419C84.7448 78.2182 84.7683 78.0866 84.7664 77.9541C84.7708 77.7802 84.7293 77.6082 84.6461 77.4555C84.5697 77.3181 84.4567 77.2046 84.3197 77.1275C84.1786 77.0489 84.0194 77.0088 83.858 77.0112C83.7351 77.0098 83.6132 77.0322 83.4988 77.0771C83.3907 77.12 83.2926 77.1847 83.2106 77.2671C83.1272 77.3521 83.0619 77.4531 83.0189 77.5641C82.9712 77.6877 82.9476 77.8194 82.9496 77.9519C82.945 78.1257 82.9863 78.2977 83.0693 78.4505C83.145 78.5879 83.2574 78.7014 83.3941 78.7785C83.5358 78.8575 83.6957 78.898 83.858 78.8959Z" fill="white"/>
<path d="M85.8094 79.3131V76.5984H86.8287C87.0073 76.595 87.1845 76.6297 87.3486 76.7003C87.4929 76.7623 87.6165 76.8642 87.7049 76.9939C87.7935 77.1315 87.8383 77.2925 87.8335 77.456C87.839 77.6186 87.7976 77.7793 87.7144 77.9191C87.6314 78.0491 87.5105 78.1505 87.368 78.2095C87.1932 78.2804 87.0056 78.3143 86.8171 78.3092H86.3144V79.3142L85.8094 79.3131ZM86.3144 77.8793H86.8132C86.9469 77.8874 87.0797 77.852 87.1917 77.7784C87.2819 77.7112 87.3271 77.6065 87.3275 77.4643C87.3318 77.4037 87.3214 77.3429 87.2973 77.2871C87.2732 77.2312 87.236 77.182 87.189 77.1435C87.081 77.0657 86.95 77.0267 86.8171 77.0327H86.3127L86.3144 77.8793Z" fill="white"/>
<path d="M88.3 79.3131V76.5984H90.1069V77.0416H88.8044V77.6992H89.9184V78.1125H88.8044V78.8693H90.1196V79.3125L88.3 79.3131Z" fill="white"/>
<path d="M90.7063 79.3131V76.5984H91.2051V78.5014L92.4799 76.5984H92.9726V79.3131H92.4738V77.3962L91.199 79.3147L90.7063 79.3131Z" fill="white"/>
<path d="M94.5907 79.3131V76.5984H95.0895V78.5014L96.3643 76.5984H96.8575V79.3131H96.3587V77.3962L95.084 79.3147L94.5907 79.3131Z" fill="white"/>
<path d="M98.4719 79.3132V76.5985H98.9768V77.6539H99.4856V78.1165H98.9791V79.3154L98.4719 79.3132ZM100.151 79.3132L99.0422 77.8894L100.03 76.5974H100.655L99.6574 77.8872L100.799 79.3132H100.151Z" fill="white"/>
<path d="M101.219 79.3131V76.5984H101.718V78.5014L102.992 76.5984H103.486V79.3131H102.987V77.3962L101.712 79.3147L101.219 79.3131Z" fill="white"/>
<path d="M104.671 79.3132V77.0589H103.919V76.5974H105.927V77.0589H105.176V79.3132H104.671Z" fill="white"/>
<path d="M105.881 79.3131L106.923 76.5984H107.486L108.549 79.3131H107.981L107.75 78.6981H106.657L106.436 79.3131H105.881ZM106.781 78.2693H107.622L107.195 77.1674L106.781 78.2693Z" fill="white"/>
<path d="M108.709 79.3131L109.505 78.1802C109.32 78.1457 109.15 78.0533 109.021 77.9165C108.902 77.7784 108.84 77.6001 108.847 77.4178C108.843 77.2613 108.885 77.107 108.969 76.9746C109.053 76.8489 109.173 76.7508 109.312 76.6926C109.478 76.6239 109.656 76.5905 109.835 76.5946H110.848V79.3093H110.344V78.2461H110.017L109.296 79.3093L108.709 79.3131ZM109.847 77.8367H110.346V77.0201H109.87C109.737 77.0123 109.605 77.0474 109.493 77.1203C109.448 77.1552 109.411 77.2007 109.388 77.2529C109.364 77.3051 109.354 77.3623 109.357 77.4195C109.354 77.4771 109.363 77.5348 109.384 77.5884C109.406 77.642 109.439 77.6901 109.482 77.7292C109.563 77.8007 109.684 77.8395 109.847 77.8395V77.8367Z" fill="white"/>
<path d="M55.5413 0L21.1906 56.4255L35.3609 52.4128L39.0743 52.4804C39.192 52.4829 39.3088 52.4608 39.4174 52.4154C39.5259 52.3699 39.6237 52.3022 39.7045 52.2167C40.1323 51.7668 40.9609 50.8571 41.2187 50.3191C41.2187 50.3191 40.5231 49.4272 39.807 49.1263C39.5299 49.0106 38.7268 48.8056 37.8117 48.6167C36.3391 48.3119 34.5789 48.0521 34.2707 48.2759L34.4985 42.9086C34.5942 43.0396 34.7176 43.148 34.8599 43.2261C35.5937 43.6294 37.1245 44.3341 39.3836 44.6759C39.3836 44.6759 39.7039 44.7202 40.1745 44.7352C40.7182 44.7529 41.4603 44.7291 42.1332 44.5507C41.8448 43.9081 41.6365 43.2325 41.513 42.5391C41.5013 42.4704 41.4908 42.4006 41.4814 42.3302C41.4814 42.3302 35.4202 41.3552 34.6842 40.5984L38.0767 36.8582C38.0767 36.8582 38.4336 34.0089 40.4837 32.0593C40.0293 33.0301 39.6784 34.0461 39.4368 35.0903C41.5617 34.9241 43.9566 34.8299 46.2379 34.7756C51.1556 34.6599 55.5436 34.7369 55.5436 34.7369C55.5436 34.7369 59.9304 34.6599 64.8493 34.7756C67.1305 34.831 69.5271 34.9258 71.6515 35.0903C71.41 34.0465 71.0593 33.0309 70.6051 32.0604C72.6558 34.0105 73.0105 36.8582 73.0105 36.8582L76.4046 40.5984C75.6675 41.3552 69.6063 42.3302 69.6063 42.3302C69.5969 42.4006 69.5864 42.4704 69.5747 42.5391C69.4506 43.2326 69.2418 43.9082 68.9529 44.5507C69.6257 44.7291 70.3678 44.7529 70.9116 44.7352C71.3821 44.7202 71.703 44.6759 71.703 44.6759C73.9626 44.333 75.4924 43.6294 76.2262 43.2261C76.368 43.1479 76.4915 43.0402 76.5881 42.9103L76.8164 48.2759C76.5072 48.0543 74.7469 48.3119 73.2743 48.6167C72.357 48.8056 71.5523 49.0106 71.279 49.1263C70.5629 49.4272 69.8674 50.3191 69.8674 50.3191C70.1251 50.8571 70.9537 51.7668 71.3804 52.2167C71.4614 52.3022 71.5594 52.3699 71.6681 52.4154C71.7769 52.4608 71.8939 52.4829 72.0117 52.4804L75.7251 52.4128L89.8949 56.4255L55.5413 0ZM51.1673 26.6759L55.5413 19.4903L59.9049 26.6582C56.8261 26.5862 53.2512 26.6338 51.1673 26.6759Z" fill="white"/>
<path d="M55.5398 41.1895C48.4804 41.1895 44.6357 41.7778 43.5411 41.9762C43.4473 41.993 43.3631 42.0442 43.3049 42.1196C43.2467 42.1951 43.2187 42.2895 43.2262 42.3845C43.3487 43.8803 44.1424 45.0992 44.5404 45.621C44.6798 45.8032 44.8741 45.9358 45.0946 45.9994C48.7066 47.062 55.5404 47.7257 55.5404 47.7257C55.5404 47.7257 62.3747 47.0609 65.9867 45.9994C66.2072 45.9358 66.4015 45.8032 66.5409 45.621C66.9389 45.0964 67.7326 43.8798 67.855 42.3845C67.8626 42.2895 67.8346 42.1951 67.7764 42.1196C67.7182 42.0442 67.634 41.993 67.5402 41.9762C66.4445 41.7778 62.5997 41.1895 55.5398 41.1895Z" fill="white"/>
<path d="M69.7235 53.421C68.9903 53.0603 67.7283 51.4564 67.1906 50.7445C67.1111 50.6384 67.0073 50.5529 66.8879 50.4951C66.7686 50.4372 66.6371 50.4088 66.5045 50.4121C65.1715 50.4492 60.8867 50.5556 55.5411 50.5556C50.1954 50.5556 45.9111 50.4515 44.5776 50.4155C44.4451 50.4122 44.3137 50.4407 44.1945 50.4985C44.0752 50.5563 43.9715 50.6418 43.892 50.7479C43.355 51.4598 42.0924 53.0637 41.3591 53.4243C40.4097 53.8875 34.6185 53.1855 34.6185 53.1855C34.5198 53.7661 34.93 53.9479 34.93 53.9479C36.0661 54.6792 55.5411 54.508 55.5411 54.508C55.5411 54.508 75.0165 54.6814 76.1527 53.9501C76.1527 53.9501 76.5629 53.7684 76.4642 53.1878C76.4642 53.1855 70.6729 53.8875 69.7235 53.421Z" fill="white"/>
<path d="M55.5398 41.1895C62.5997 41.1895 66.4445 41.7778 67.5391 41.9762C67.6329 41.993 67.7171 42.0442 67.7753 42.1196C67.8335 42.1951 67.8615 42.2895 67.8539 42.3845C67.7315 43.8803 66.9378 45.0992 66.5398 45.621C66.4003 45.8032 66.2061 45.9358 65.9856 45.9994C62.3736 47.062 55.5393 47.7257 55.5393 47.7257C55.5393 47.7257 48.7055 47.0609 45.0935 45.9994C44.873 45.9358 44.6787 45.8032 44.5392 45.621C44.1424 45.0969 43.3487 43.8781 43.2262 42.3823C43.2187 42.2873 43.2467 42.1929 43.3049 42.1174C43.3631 42.042 43.4473 41.9908 43.5411 41.9739C44.6357 41.7778 48.4804 41.1895 55.5398 41.1895Z" fill="white"/>
<path d="M41.3591 53.421C42.0924 53.0603 43.3544 51.4564 43.892 50.7445C43.9715 50.6385 44.0752 50.553 44.1945 50.4952C44.3137 50.4374 44.4451 50.4089 44.5776 50.4121C45.9111 50.4492 50.196 50.5556 55.5411 50.5556C60.8862 50.5556 65.1715 50.4492 66.5045 50.4121C66.6371 50.4088 66.7686 50.4372 66.8879 50.4951C67.0073 50.5529 67.1111 50.6384 67.1906 50.7445C67.7277 51.4564 68.9903 53.0603 69.7235 53.421C70.6729 53.8875 76.4642 53.1878 76.4642 53.1878C76.5629 53.7684 76.1527 53.9501 76.1527 53.9501C75.0165 54.6814 55.5411 54.5102 55.5411 54.5102C55.5411 54.5102 36.0661 54.6814 34.93 53.9501C34.93 53.9501 34.5198 53.7684 34.6185 53.1878C34.6185 53.1855 40.4097 53.8875 41.3591 53.421Z" fill="white"/>
</svg>
